<svg xmlns="http://www.w3.org/2000/svg" width="240" height="79" viewBox="0 0 240 79" fill="none">
  <path fill-rule="evenodd" clip-rule="evenodd" d="M62.4237 47.4421C66.8393 47.4423 70.4194 51.045 70.4197 55.4882C70.4197 59.9317 66.8395 63.5341 62.4237 63.5343C59.4742 63.5343 56.8987 61.9266 55.5127 59.535L42.2757 67.1867C42.8688 68.3108 43.2062 69.5926 43.2062 70.9539C43.206 75.3974 39.6261 79 35.2103 79C30.7946 78.9998 27.2145 75.3972 27.2143 70.9539C27.2143 69.558 27.5679 68.2447 28.1895 67.1004L16.949 60.6035L18.2767 58.2767L29.8619 64.973C30.9656 63.9729 32.3476 63.2793 33.8766 63.0208V56.8751H36.5439V63.0208C38.1079 63.2851 39.5174 64.0051 40.6332 65.0421L54.5676 56.9873C54.4766 56.5016 54.4278 56.0005 54.4278 55.4882C54.4281 51.0449 58.008 47.4422 62.4237 47.4421ZM35.2103 65.5918C32.2673 65.592 29.8817 67.9924 29.8816 70.9539C29.8818 73.9153 32.2674 76.3166 35.2103 76.3168C38.1533 76.3168 40.5396 73.9154 40.5398 70.9539C40.5397 67.9923 38.1534 65.5918 35.2103 65.5918ZM62.4237 50.1262C59.4808 50.1262 57.0954 52.5269 57.0951 55.4882C57.0951 58.4498 59.4806 60.8511 62.4237 60.8512C65.3667 60.8509 67.7532 58.4497 67.7532 55.4882C67.753 52.527 65.3666 50.1264 62.4237 50.1262Z" fill="#203059"/>
  <path fill-rule="evenodd" clip-rule="evenodd" d="M119.439 41.4837C125.459 41.4838 129.621 45.9554 129.621 52.5479C129.621 59.1403 125.459 63.6119 119.439 63.612C113.421 63.612 109.256 59.1404 109.256 52.5479C109.256 45.9553 113.419 41.4837 119.439 41.4837ZM119.439 43.8924C115.136 43.8924 112.211 47.4577 112.211 52.5496C112.211 57.6416 115.136 61.2076 119.439 61.2076C123.742 61.2075 126.667 57.6415 126.667 52.5496C126.666 47.4578 123.742 43.8925 119.439 43.8924Z" fill="#203059"/>
  <path fill-rule="evenodd" clip-rule="evenodd" d="M229.662 41.4837C235.682 41.4837 239.842 45.9553 239.842 52.5479C239.842 59.1404 235.68 63.612 229.662 63.612C223.642 63.612 219.48 59.1403 219.48 52.5479C219.48 45.9553 223.642 41.4837 229.662 41.4837ZM229.662 43.8924C225.359 43.8925 222.432 47.4577 222.432 52.5496C222.432 57.6416 225.357 61.2076 229.662 61.2076C233.965 61.2076 236.889 57.6416 236.889 52.5496C236.889 47.4577 233.965 43.8924 229.662 43.8924Z" fill="#203059"/>
  <path fill-rule="evenodd" clip-rule="evenodd" d="M35.2111 0C39.628 0.000262135 43.2088 3.60405 43.2088 8.0487C43.2086 12.4932 39.6279 16.0963 35.2111 16.0965C32.2847 16.0965 29.7262 14.5142 28.3319 12.1542L14.9447 19.8922C15.6123 21.0677 15.9962 22.4278 15.9962 23.8786C15.9961 24.4448 15.9361 24.9972 15.8255 25.5304L18.2955 27.033L16.9156 29.3295L14.8306 28.0609C13.6514 30.0073 11.6749 31.4087 9.35704 31.8082V47.5612C13.235 48.2288 16.125 51.6907 15.9902 55.7584C15.8429 60.1994 12.146 63.6798 7.73264 63.5318C3.31927 63.3836 -0.139396 59.6626 0.00771892 55.2215C0.137143 51.3216 3.00418 48.1632 6.68973 47.5517V31.8177C2.89517 31.1892 0.000156065 27.8748 0 23.8786C2.53539e-05 19.4338 3.58143 15.8299 7.99851 15.8299C9.99809 15.83 11.8247 16.5706 13.2268 17.7915L27.3653 9.61771C27.2656 9.11018 27.2126 8.58566 27.2126 8.0487C27.2126 3.60389 30.794 0 35.2111 0ZM8.17691 50.1305C5.23546 50.0318 2.77145 52.3514 2.67332 55.3113C2.57529 58.2711 4.87974 60.7504 7.82098 60.8494C10.7625 60.9481 13.2273 58.6285 13.3254 55.6686C13.4234 52.7088 11.1182 50.2293 8.17691 50.1305ZM7.99851 18.5139C5.05419 18.5139 2.66734 20.9158 2.66731 23.8786C2.66749 26.8412 5.05428 29.2432 7.99851 29.2432C10.9424 29.2428 13.3295 26.841 13.3297 23.8786C13.3297 20.916 10.9425 18.5143 7.99851 18.5139ZM35.2111 2.68405C32.2668 2.68405 29.8799 5.08589 29.8799 8.0487C29.8801 11.0114 32.2669 13.4134 35.2111 13.4134C38.1551 13.4131 40.5422 11.0112 40.5423 8.0487C40.5423 5.08605 38.1552 2.68431 35.2111 2.68405Z" fill="#203059"/>
  <path d="M93.5704 63.2167L99.8974 41.797H105.694V63.303H102.852V41.8824L96.5251 63.303H90.6175L84.2897 41.8824V63.303H81.4483V41.797H87.2426L93.5704 63.2167Z" fill="#203059"/>
  <path fill-rule="evenodd" clip-rule="evenodd" d="M140.484 41.797C146.869 41.797 151.087 45.5601 151.087 52.5496C151.087 59.5393 146.867 63.303 140.484 63.303H133.199V41.797H140.484ZM136.041 60.7545H140.569C145.35 60.7545 148.135 57.8394 148.135 52.5479C148.135 47.2562 145.35 44.3412 140.569 44.3412H136.041V60.7545Z" fill="#203059"/>
  <path fill-rule="evenodd" clip-rule="evenodd" d="M201.593 41.797C206.796 41.797 208.793 44.4011 208.793 47.3722C208.793 50.3431 206.628 51.9276 203.478 52.2389C207.443 52.3806 209.526 54.0783 209.526 57.3325C209.526 61.2095 206.628 63.303 201.593 63.303H193.551V41.797H201.593ZM196.391 60.7545H201.679C204.969 60.7545 206.573 59.4816 206.573 57.1332C206.573 54.7847 204.969 53.4834 201.679 53.4834H196.391V60.7545ZM196.391 50.9357H201.593C204.266 50.9357 205.841 49.946 205.841 47.6536C205.841 45.3909 204.266 44.3429 201.593 44.3429H196.391V50.9357Z" fill="#203059"/>
  <path d="M168.615 44.3412H157.534V50.9331H168.418V53.4791H157.534V60.7545H168.868V63.3005H154.692V41.7944H168.615V44.3412Z" fill="#203059"/>
  <path d="M175.486 60.7545H185.274V63.3005H172.644V41.7944H175.486V60.7545Z" fill="#203059"/>
  <path d="M215.906 63.3005H213.067V41.7944H215.906V63.3005Z" fill="#203059"/>
  <path fill-rule="evenodd" clip-rule="evenodd" d="M29.7453 33.6257C31.1754 32.2778 33.0973 31.4517 35.2111 31.4517C37.4721 31.4519 39.5123 32.3977 40.9669 33.9157L45.7286 31.1635L47.0571 33.4902L42.4763 36.138C42.9448 37.1615 43.2088 38.2998 43.2088 39.5004C43.2086 43.4878 40.3261 46.7955 36.5439 47.4343V53.0079H33.8766V47.4335C30.095 46.7941 27.2128 43.4874 27.2126 39.5004C27.2126 38.158 27.5405 36.8928 28.1183 35.7799L19.769 30.9538L21.0967 28.627L29.7453 33.6257ZM35.2111 34.1358C32.2668 34.1358 29.8799 36.5376 29.8799 39.5004C29.8802 42.463 32.2669 44.8651 35.2111 44.8651C38.1551 44.8648 40.5421 42.4629 40.5423 39.5004C40.5423 36.5378 38.1552 34.136 35.2111 34.1358Z" fill="#203059"/>
  <path fill-rule="evenodd" clip-rule="evenodd" d="M57.3721 17.6388C58.7495 16.5083 60.5079 15.8299 62.4237 15.8299C66.8407 15.83 70.4214 19.4339 70.4214 23.8786C70.4212 27.8935 67.4992 31.2211 63.6785 31.8272V44.0003H61.0112V31.7987C58.8393 31.4091 56.9707 30.1397 55.7846 28.3672L49.5349 31.9825L48.2055 29.6557L54.6825 25.9093C54.5149 25.2606 54.4253 24.5801 54.4252 23.8786C54.4252 22.3488 54.8491 20.9185 55.5856 19.7006L45.0793 13.6274L46.407 11.3006L57.3721 17.6388ZM62.4237 18.5139C59.4794 18.5139 57.0926 20.9158 57.0925 23.8786C57.0927 26.8412 59.4795 29.2432 62.4237 29.2432C65.3678 29.243 67.7548 26.8411 67.7549 23.8786C67.7549 20.9159 65.3679 18.5141 62.4237 18.5139Z" fill="#203059"/>
  <path d="M88.2264 15.388C92.5292 15.3881 95.7906 17.7647 96.4093 21.3024H93.4572C92.7831 18.8402 90.814 17.7942 88.2264 17.7941C85.6386 17.7941 83.3875 19.0957 83.3875 21.0771C83.3876 23.0583 84.766 23.7922 88.0574 24.5284L90.7281 25.1231C95.0311 26.0848 96.9728 27.6136 96.9728 30.9796C96.9727 34.8286 93.5127 37.5153 88.2821 37.5154C83.7539 37.5148 80.4925 34.9398 79.8462 30.7242H82.7991C83.1938 33.6394 85.4145 35.1102 88.2838 35.1102C92.0532 35.1101 94.1054 33.5258 94.1056 31.2912C94.1056 28.9427 92.3905 28.3754 88.9579 27.6112L86.2872 27.0166C82.94 26.2802 80.5203 24.582 80.5203 21.3576C80.5206 17.9338 83.9236 15.388 88.2264 15.388Z" fill="#203059"/>
  <path d="M152.052 37.0917V15.6995H154.893V37.2047H149.015L139.368 15.8135V37.2047H136.527V15.6995H142.405L152.052 37.0917Z" fill="#203059"/>
  <path fill-rule="evenodd" clip-rule="evenodd" d="M167.234 15.6995C173.619 15.6995 177.837 19.4625 177.837 26.4521C177.837 33.4419 173.617 37.2047 167.234 37.2047H159.949V15.6995H167.234ZM162.789 34.6571H167.317C172.098 34.6571 174.884 31.7419 174.884 26.4504C174.884 21.1588 172.1 18.2429 167.317 18.2429H162.789V34.6571Z" fill="#203059"/>
  <path fill-rule="evenodd" clip-rule="evenodd" d="M210.272 15.6995C214.995 15.6995 217.949 18.1894 217.95 22.0662C217.95 25.0093 216.235 27.1602 213.365 28.0082H213.367L218.823 37.2047H215.505L210.358 28.4337H205.239V37.2047H202.398V15.6995H210.272ZM205.239 25.8851H210.329C213.226 25.8851 214.998 24.5263 214.998 22.0662C214.997 19.6062 213.226 18.2472 210.329 18.2472V18.2455H205.239V25.8851Z" fill="#203059"/>
  <path fill-rule="evenodd" clip-rule="evenodd" d="M229.398 15.6995C235.78 15.6997 240 19.4626 240 26.4521C240 33.4418 235.78 37.2046 229.398 37.2047H222.112V15.6995H229.398ZM224.953 34.6571H229.481C234.263 34.6569 237.047 31.7417 237.047 26.4504C237.047 21.1589 234.264 18.243 229.481 18.2429H224.953V34.6571Z" fill="#203059"/>
  <path d="M115 18.2455H107.883V37.203H105.041V18.2455H97.9239V15.6995H115V18.2455Z" fill="#203059"/>
  <path fill-rule="evenodd" clip-rule="evenodd" d="M134.056 37.203H131.018L128.713 30.694H118.223L115.917 37.203H112.879L120.557 15.697H126.378L134.056 37.203ZM119.123 28.148H127.814L123.484 15.8109H123.481L119.123 28.148Z" fill="#203059"/>
  <path fill-rule="evenodd" clip-rule="evenodd" d="M199.929 37.203H196.892L194.585 30.694H184.096L181.79 37.203H178.752L186.43 15.697H192.252L199.929 37.203ZM184.996 28.148H193.687L189.357 15.8109H189.354L184.996 28.148Z" fill="#203059"/>
  <path d="M35.2111 2.68405C32.2668 2.68405 29.8799 5.08589 29.8799 8.0487C29.8801 11.0114 32.2669 13.4134 35.2111 13.4134C38.1551 13.4131 40.5422 11.0112 40.5423 8.0487C40.5423 5.08605 38.1552 2.68431 35.2111 2.68405Z" fill="#F86447"/>
  <path d="M8.17691 50.1305C5.23546 50.0318 2.77145 52.3514 2.67332 55.3113C2.57529 58.2711 4.87974 60.7504 7.82098 60.8494C10.7625 60.9481 13.2273 58.6285 13.3254 55.6686C13.4234 52.7088 11.1182 50.2293 8.17691 50.1305Z" fill="#F86447"/>
  <path d="M35.2111 34.1358C32.2668 34.1358 29.8799 36.5376 29.8799 39.5004C29.8802 42.463 32.2669 44.8651 35.2111 44.8651C38.1551 44.8648 40.5421 42.4629 40.5423 39.5004C40.5423 36.5378 38.1552 34.136 35.2111 34.1358Z" fill="#F86447"/>
  <path d="M62.4237 18.5139C59.4794 18.5139 57.0926 20.9158 57.0925 23.8786C57.0927 26.8412 59.4795 29.2432 62.4237 29.2432C65.3678 29.243 67.7548 26.8411 67.7549 23.8786C67.7549 20.9159 65.3679 18.5141 62.4237 18.5139Z" fill="#EEA594"/>
  <path d="M35.2103 65.5918C32.2673 65.592 29.8817 67.9924 29.8816 70.9539C29.8818 73.9153 32.2674 76.3166 35.2103 76.3168C38.1533 76.3168 40.5396 73.9154 40.5398 70.9539C40.5397 67.9923 38.1534 65.5918 35.2103 65.5918Z" fill="#EEA594"/>
  <path d="M62.4237 50.1262C59.4808 50.1262 57.0954 52.5269 57.0951 55.4882C57.0951 58.4498 59.4806 60.8511 62.4237 60.8512C65.3667 60.8509 67.7532 58.4497 67.7532 55.4882C67.753 52.527 65.3666 50.1264 62.4237 50.1262Z" fill="#9EADC7"/>
  <path d="M7.99851 18.5139C5.05419 18.5139 2.66734 20.9158 2.66731 23.8786C2.66749 26.8412 5.05428 29.2432 7.99851 29.2432C10.9424 29.2428 13.3295 26.841 13.3297 23.8786C13.3297 20.916 10.9425 18.5143 7.99851 18.5139Z" fill="#DCCFBD"/>
</svg>